<svg xmlns="http://www.w3.org/2000/svg" viewBox="0 0 512 512"><path d="M106.3 266.7a34.8 34.8 0 00-49.5 0 34.8 34.8 0 000 49.5 34.8 34.8 0 0049.5 0 34.8 34.8 0 000-49.5zm-14.1 35.4a14.9 14.9 0 01-21.2 0 14.9 14.9 0 010-21.2 14.9 14.9 0 0121.2 0 14.9 14.9 0 010 21.2z"/><path d="M509 133.5a10 10 0 00-9.9-2.5l-168.4 50.3L381 12.9A10 10 0 00368.7.4L325 12.7a10 10 0 00-6.4 5.6l-86.9 192.5-88.6 26.5a81.2 81.2 0 1018 65.7l43.6 4.2L209 351a81 81 0 1065.7 18l26.5-88.7 192.5-87a10 10 0 005.5-6.3l12.4-43.7c1-3.5 0-7.3-2.6-9.8zM203 274.7a10 10 0 00-.8 5l.7 7.2-49.7-4.8a10 10 0 00-11 9.6 61 61 0 11-11-37.2c2.5 3.6 7 5.1 11.1 3.9l78.7-23.5-18 39.8zm50.7 95.1a10 10 0 003.8 11 61 61 0 11-37-11 10 10 0 009.2-7.1l.4-1 23.8-61.4a10 10 0 00-18.6-7.2l-9.4 24.1-3.6-36.7L335 30.7l21.6-6.1-103 345.2zM481.3 177L308.8 255l15.1-50.7 163.5-48.8-6.1 21.6z"/><path d="M247.2 406.2a34.8 34.8 0 00-49.5 0 34.8 34.8 0 000 49.5 34.8 34.8 0 0049.5 0 35 35 0 000-49.5zm-14.1 35.4a15 15 0 01-21.2 0 15 15 0 010-21.3 14.9 14.9 0 0121.2 0 15 15 0 010 21.3zM259 259.4a10 10 0 00-13 5.7v.3a10 10 0 1018.6 7.2l.1-.3c2-5.2-.5-11-5.7-13z"/></svg>